<svg width="257" height="133" viewBox="0 0 257 133" fill="none" xmlns="http://www.w3.org/2000/svg">
<path fill-rule="evenodd" clip-rule="evenodd" d="M133.125 0.500651C135.33 0.655306 138.28 0.995547 139.647 1.243C141.013 1.49044 143.249 1.95441 144.616 2.32558C145.982 2.66582 148.56 3.4391 150.361 4.05772C152.131 4.67634 155.298 6.00637 157.348 6.99616C159.398 7.98595 162.658 9.87275 164.646 11.1718C166.602 12.5019 169.242 14.4196 170.546 15.5022C171.82 16.5538 174.211 18.8118 175.826 20.4821C177.441 22.1833 179.677 24.7196 180.794 26.1734C181.881 27.6271 183.465 29.916 184.335 31.277C185.173 32.638 186.726 35.5455 187.813 37.7725C188.9 39.9686 190.328 43.4947 191.012 45.5671C191.726 47.6704 192.626 51.0728 193.03 53.1452C193.465 55.2485 193.962 58.8365 194.148 61.1254C194.296 62.7438 194.372 64.8335 194.366 66.6667H62.3669C62.3632 65.1301 62.4097 63.5731 62.5064 62.208C62.6617 59.8263 63.0033 56.6095 63.2517 55.0939C63.5312 53.5473 63.997 51.2584 64.3387 49.9902C64.6492 48.7221 65.4256 46.2167 66.0467 44.4227C66.6678 42.6287 68.0652 39.35 69.1522 37.1539C70.2391 34.9268 71.9471 31.8647 72.9409 30.3491C73.9346 28.8025 75.8911 26.1734 77.2575 24.4722C78.655 22.771 81.2015 20.0181 83.0026 18.3478C84.7728 16.6776 87.5367 14.3268 89.1826 13.1514C90.7974 11.9451 93.5924 10.1202 95.3935 9.09947C97.1637 8.07874 100.176 6.56313 102.07 5.75892C103.934 4.95472 106.853 3.8412 108.499 3.31537C110.176 2.78954 113.25 2.01627 115.331 1.58324C117.443 1.18113 121.107 0.686236 123.498 0.469719C127.118 0.188798 129.498 0.199604 133.125 0.500651ZM88.4683 23.6989C86.7603 25.3073 84.4933 27.689 83.4374 28.9572C75.2671 38.49 69.9285 51.4973 69.9285 64.0638C69.9285 65.6104 69.9906 65.765 70.6117 65.765C71.0155 65.765 74.0278 65.4867 77.3817 65.1464C80.7046 64.8062 83.5927 64.5278 83.8101 64.5278C84.0585 64.5278 84.2759 63.8782 84.3691 62.7338C84.4622 61.7749 84.7417 59.7026 85.0212 58.1869C85.2697 56.6404 85.8597 54.2896 86.2634 52.9287C86.6982 51.5677 87.7851 48.9077 88.7167 47.0518C89.6173 45.165 91.2322 42.4121 92.3191 40.8656C93.406 39.35 95.4867 36.9064 96.9463 35.4217C98.3748 33.968 100.611 31.9884 101.915 31.0605C103.188 30.1325 105.269 28.7716 106.573 28.0602C107.847 27.3178 110.02 26.2662 111.387 25.7094C112.753 25.1217 115.176 24.3175 116.821 23.8845C118.436 23.4205 121.324 22.8947 123.219 22.6782L126.697 22.307C126.945 20.6367 127.101 17.389 127.194 14.0175L127.318 7.92409C112.908 8.22311 98.9459 13.8323 88.4683 23.6989ZM129.399 13.9866C129.492 17.358 129.647 20.6367 129.74 21.2244L129.896 22.307C133.839 22.6782 136.448 23.1112 138.249 23.5133C140.019 23.9154 142.814 24.7506 144.46 25.4001C146.075 26.0497 148.156 27.0085 149.118 27.5034C150.05 28.0292 152.069 29.2974 153.59 30.3181C155.143 31.3698 157.721 33.5349 159.336 35.1434C160.981 36.7518 163.186 39.35 164.273 40.8656C165.36 42.4121 167.006 45.165 167.907 47.0518C168.807 48.9386 169.987 51.908 170.515 53.702C171.043 55.496 171.695 58.62 171.975 60.6614C172.223 62.7029 172.472 64.4041 172.503 64.435C172.534 64.4659 175.484 64.7753 179.086 65.1155C182.658 65.4867 185.887 65.765 186.229 65.765C186.819 65.765 186.819 65.6413 186.633 62.3008C185.734 48.4204 179.739 35.7194 170.267 25.7403C168.621 24.0701 166.292 21.9049 165.112 20.9151C154.727 12.6932 142.486 8.69417 129.243 7.8313L129.399 13.9866ZM118.498 27.4415C117.132 27.7818 114.989 28.4932 113.685 28.9881C112.412 29.4521 110.3 30.4728 109.027 31.1842C107.753 31.9265 105.735 33.2256 104.524 34.0917C103.344 34.9887 101.17 36.9374 99.7102 38.422C98.2506 39.9377 96.3562 42.2266 95.4867 43.4947C94.6172 44.7629 93.3129 46.9899 92.5676 48.4437C91.8533 49.8974 90.8595 52.2482 90.3937 53.702C89.9279 55.1557 89.3999 57.1044 89.1826 58.0323C88.9962 58.9602 88.7478 60.8161 88.6236 62.1152L88.3752 64.5278C89.959 64.5278 92.4744 64.3113 94.9898 64.0638C97.5053 63.7855 101.17 63.3215 103.126 62.9813C105.114 62.6719 107.971 61.9605 109.492 61.4038C111.045 60.8779 113.064 59.9809 113.995 59.4551C114.927 58.9293 116.449 57.7848 117.38 56.9497C118.312 56.0836 119.616 54.568 120.3 53.5473C120.952 52.4956 121.945 50.2686 122.536 48.4437C123.095 46.6497 123.871 43.8659 124.212 42.2575C124.554 40.6491 125.113 37.3704 125.455 34.9887C125.796 32.607 126.138 29.6376 126.231 28.4004C126.355 26.4517 126.293 26.1734 125.858 26.2043C125.844 26.2058 125.828 26.2076 125.81 26.2096C125.79 26.2118 125.768 26.2141 125.743 26.2168L125.633 26.2286C125.157 26.2793 124.157 26.3859 123.157 26.5136C121.977 26.6683 119.865 27.1013 118.498 27.4415ZM130.796 32.5761C131.138 35.2671 131.759 39.1644 132.194 41.2368C132.597 43.3401 133.436 46.526 134.026 48.3509C134.616 50.2377 135.61 52.4956 136.293 53.5473C136.945 54.568 138.249 56.0836 139.181 56.9497C140.113 57.7848 141.634 58.9293 142.566 59.4551C143.529 60.0119 145.547 60.8779 147.069 61.4347C148.622 61.9605 151.479 62.6719 153.435 62.9813C155.423 63.3215 159.087 63.7855 161.603 64.0638C164.118 64.3113 166.633 64.5278 167.192 64.5278H168.186C167.845 60.5686 167.379 58.0942 166.975 56.4857C166.54 54.8773 165.857 52.6503 165.391 51.5368C164.957 50.4233 164.025 48.4746 163.342 47.2064C162.658 45.9383 161.292 43.804 160.329 42.4431C159.367 41.113 157.317 38.8242 155.764 37.3395C154.243 35.8548 151.789 33.8752 150.33 32.9163C148.901 31.9575 146.82 30.7512 145.765 30.2253C144.678 29.6995 142.597 28.8644 141.106 28.3695C139.616 27.8436 137.256 27.225 135.889 26.9776C134.523 26.7301 132.69 26.4208 131.79 26.328C130.237 26.1424 130.175 26.1734 130.175 26.9466C130.144 27.3488 130.423 29.916 130.796 32.5761Z" fill="white"/>
<path d="M62.6055 72C62.7812 74.0635 63.053 76.4018 63.2828 77.6735C63.5312 79.1891 64.1213 81.7873 64.525 83.3957C64.9598 85.0041 65.7982 87.6642 66.3883 89.2726C66.9783 90.881 68.3137 93.8813 69.3074 95.9228C70.3322 97.9642 72.0713 101.026 73.2204 102.728C74.3383 104.429 76.1395 106.872 77.1643 108.141C78.1891 109.409 80.394 111.79 82.0089 113.399C83.6548 115.038 86.2945 117.389 87.9404 118.626C89.5552 119.863 92.1328 121.657 93.6855 122.616C95.2072 123.544 98.0021 125.06 99.8965 125.957C101.76 126.854 104.772 128.091 106.573 128.71C108.343 129.328 111.232 130.163 112.94 130.596C114.648 130.999 117.598 131.555 119.523 131.803C121.449 132.05 124.057 132.267 125.362 132.267H128.933C132.784 132.267 135.454 132.05 137.38 131.772C139.305 131.524 142.69 130.844 144.926 130.256C147.131 129.699 150.268 128.71 151.913 128.091C153.528 127.441 156.323 126.204 158.124 125.307C159.895 124.41 162.689 122.802 164.335 121.75C165.95 120.668 168.248 119.028 169.459 118.1C170.64 117.172 173.155 114.853 175.049 112.966C176.944 111.079 179.335 108.419 180.36 107.058C181.416 105.697 183.062 103.315 184.055 101.8C185.049 100.284 186.757 97.1909 187.813 94.9948C188.869 92.7987 190.235 89.5201 190.825 87.7261C191.446 85.9321 192.223 83.2101 192.595 81.6945C192.937 80.1789 193.434 77.5188 193.682 75.8176C193.825 74.8427 193.977 73.4207 194.099 72H186.426C186.285 73.8645 185.993 76.0045 185.608 77.8281C185.204 79.9624 184.273 83.3339 183.589 85.3134C182.906 87.324 181.54 90.5408 180.577 92.4276C179.614 94.3453 178.031 97.0981 177.099 98.5519C176.136 100.006 174.366 102.356 173.155 103.81C171.944 105.264 169.77 107.553 168.31 108.914C166.851 110.275 164.646 112.162 163.373 113.12C162.099 114.079 160.019 115.502 158.714 116.275C157.441 117.049 154.926 118.379 153.125 119.214C151.354 120.08 148.684 121.193 147.224 121.688C145.796 122.183 143.001 122.956 141.013 123.39C139.057 123.823 136.075 124.348 134.43 124.503C132.753 124.689 130.858 124.843 129.057 124.843L129.305 118.719C129.43 115.378 129.647 112.1 129.989 110.337L132.163 110.151C133.374 110.027 135.672 109.687 137.287 109.378C138.932 109.038 141.51 108.357 143.032 107.8C144.584 107.274 147.038 106.223 148.466 105.45C149.926 104.676 152.038 103.439 153.125 102.697C154.243 101.954 156.137 100.47 157.348 99.418C158.559 98.3354 160.36 96.5723 161.354 95.4588C162.348 94.3453 163.994 92.1801 165.019 90.6645C166.012 89.118 167.41 86.7053 168.124 85.2516C168.807 83.7978 169.739 81.4471 170.205 79.9933C170.671 78.5396 171.292 76.096 171.54 74.5804C171.685 73.7813 171.837 72.85 171.968 72H167.758C167.587 73.2113 167.344 74.5721 167.13 75.5083C166.789 76.8693 166.106 79.1582 165.578 80.6119C165.05 82.0657 163.901 84.5092 163.031 86.0249C162.13 87.5714 160.857 89.5819 160.143 90.5099C159.46 91.4378 157.969 93.1699 156.851 94.3453C155.733 95.5207 153.653 97.3456 152.193 98.4591C150.733 99.5417 148.218 101.088 146.603 101.923C144.988 102.759 142.597 103.81 141.324 104.243C140.05 104.707 137.628 105.357 135.951 105.697C134.305 106.006 132.318 106.285 131.541 106.285C130.423 106.285 130.144 106.192 130.144 105.759C130.144 105.45 130.361 103.47 130.61 101.336C130.858 99.2015 131.355 95.8609 131.697 93.9123C132.069 91.9636 132.753 88.7468 133.281 86.7981C133.777 84.8495 134.74 82.1276 135.392 80.7666C136.231 79.0654 137.162 77.7044 138.436 76.4363C139.429 75.4155 141.044 74.1164 141.976 73.5906C142.733 73.1224 144.04 72.4573 145.101 72H111.519C112.065 72.2282 112.559 72.4514 112.909 72.6317C113.778 73.0648 115.3 74.0546 116.325 74.8278C117.349 75.6011 118.716 76.9002 119.337 77.7353C119.958 78.5396 120.734 79.7768 121.076 80.4573C121.418 81.1378 122.039 82.7462 122.473 84.0143C122.908 85.2825 123.622 87.9426 124.057 89.8912C124.492 91.8399 125.113 95.3969 125.455 97.7786C125.796 100.16 126.169 103.037 126.417 106.285H125.02C124.275 106.285 122.256 106.006 120.61 105.666C118.933 105.357 116.542 104.707 115.238 104.243C113.964 103.81 111.604 102.759 109.958 101.923C108.343 101.088 105.828 99.5417 104.368 98.4282C102.94 97.3456 100.704 95.366 99.4617 94.036C98.1885 92.675 96.5736 90.7573 95.8283 89.7366C95.114 88.7158 93.934 86.8291 93.2508 85.5609C92.5365 84.2927 91.5427 82.0657 91.0148 80.6119C90.4869 79.1582 89.7726 76.8693 89.4621 75.5083C89.2271 74.5721 88.9774 73.2113 88.7939 72H84.5897C84.8368 73.6207 85.2632 75.8806 85.6423 77.3642C86.046 79.0654 86.9466 81.7873 87.6298 83.3957C88.313 85.0041 89.5242 87.4167 90.3316 88.7468C91.139 90.0768 92.5054 92.0873 93.3439 93.2008C94.2135 94.3453 95.8904 96.263 97.1016 97.4384C98.3127 98.6447 100.331 100.408 101.605 101.367C102.878 102.325 105.176 103.841 106.698 104.707C108.25 105.573 110.61 106.718 111.977 107.244C113.343 107.769 115.734 108.543 117.256 108.914C118.809 109.316 121.542 109.811 126.697 110.46L126.852 111.543C126.945 112.131 127.132 115.378 127.504 124.843H126.417C125.827 124.843 124.026 124.689 122.38 124.503C120.765 124.348 118.033 123.915 116.325 123.575C114.617 123.204 111.759 122.462 109.958 121.874C108.188 121.286 105.021 119.987 102.971 118.997C100.921 117.977 98.0022 116.337 96.4494 115.347C94.9277 114.327 92.4123 112.471 90.8595 111.172C89.3378 109.904 87.164 107.893 86.0771 106.718C84.9591 105.542 83.2821 103.594 82.3505 102.418C81.3878 101.212 79.7729 98.9231 78.7792 97.3147C77.7544 95.7063 76.2948 92.9843 75.4874 91.2831C74.6799 89.5819 73.5309 86.7363 72.9098 84.9423C72.3198 83.1483 71.5434 80.3645 71.2018 78.7561C70.8602 77.1477 70.4254 74.4567 70.2391 72.7864C70.21 72.5306 70.1817 72.2665 70.1546 72H62.6055Z" fill="white"/>
<path fill-rule="evenodd" clip-rule="evenodd" d="M195.304 49.441C190.825 39.1626 183.644 26.9212 176.772 20.0349C170.433 13.6831 162.907 8.6445 154.625 5.2069C146.342 1.76931 137.465 0 128.5 0C119.535 0 110.658 1.76931 102.375 5.20691C94.093 8.6445 86.5673 13.6831 80.2282 20.0349C73.6224 26.654 66.2263 39.2962 61.4298 49.1738C56.9999 58.2966 8.77987 63.3243 1.43556 64.0394C0.886281 64.0929 0.5 64.5509 0.5 65.1028V65.6C0.5 66.1891 0.977562 66.6667 1.56667 66.6667H255.433C256.022 66.6667 256.5 66.1891 256.5 65.6V65.1152C256.5 64.5582 256.106 64.0972 255.551 64.0501C248.121 63.4187 199.439 58.9325 195.304 49.441ZM169.567 23.2323C180.191 31.8845 186.289 50.6031 186.619 63.202C186.635 63.7909 186.156 64.2667 185.567 64.2667L71.1667 64.2667C70.5776 64.2667 70.0987 63.7909 70.1142 63.202C70.4448 50.6031 76.5424 31.8845 87.1659 23.2323C98.093 14.333 112.913 9.33333 128.367 9.33333C143.82 9.33333 158.64 14.333 169.567 23.2323Z" fill="white"/>
</svg>
